<?xml version="1.0" encoding="utf-8"?>
<!-- Generator: Adobe Illustrator 18.0.0, SVG Export Plug-In . SVG Version: 6.00 Build 0)  -->
<!DOCTYPE svg PUBLIC "-//W3C//DTD SVG 1.1//EN" "http://www.w3.org/Graphics/SVG/1.1/DTD/svg11.dtd">
<svg version="1.1" id="Layer_1" xmlns="http://www.w3.org/2000/svg" xmlns:xlink="http://www.w3.org/1999/xlink" x="0px" y="0px"
	 viewBox="0 0 373.2 478.5" style="enable-background:new 0 0 373.2 478.5;" xml:space="preserve">
<g>
	<circle style="fill:none;stroke:#FFFFFF;" cx="184.8" cy="147.5" r="140"/>
	<circle style="fill:none;stroke:#FFFFFF;" cx="184.8" cy="147.5" r="22.2"/>
	<circle style="fill:none;stroke:#FFFFFF;" cx="184.8" cy="147.5" r="15.8"/>
</g>
<line style="fill:none;stroke:#FFFFFF;" x1="184.8" y1="287.9" x2="184.8" y2="367"/>
<g>
	<path style="fill:#FFFFFF;" d="M373.2,387.6h-1.5c-0.3,0-0.6,0.2-0.7,0.5L357,410c-0.2,0.4-0.4,0.7-0.6,1c-0.2,0.3-0.3,0.7-0.5,1
		c-0.1-0.3-0.3-0.7-0.5-1c-0.2-0.3-0.4-0.7-0.6-1L341,388.1c-0.1-0.2-0.2-0.3-0.3-0.4c-0.1-0.1-0.3-0.1-0.4-0.1h-1.5l16.4,25.5v18.5
		h1.8v-18.5L373.2,387.6z M302.8,387.6v1.5H319v42.5h1.7v-42.5h16.1v-1.5H302.8z M294.9,387.6h-1.7v44h1.7V387.6z M259.4,389h8.8
		c4.5,0,7.9,1,10.1,2.9c2.2,1.9,3.4,4.8,3.4,8.5c0,1.6-0.3,3.1-0.9,4.5c-0.6,1.4-1.5,2.6-2.7,3.6c-1.2,1-2.6,1.8-4.2,2.4
		c-1.7,0.6-3.5,0.9-5.6,0.9h-8.8V389z M268.2,413.3c2.3,0,4.3-0.3,6.2-1c1.9-0.6,3.5-1.5,4.8-2.7c1.3-1.1,2.4-2.5,3.1-4.1
		c0.7-1.6,1.1-3.3,1.1-5.2c0-4.3-1.3-7.5-3.9-9.6c-2.6-2.1-6.4-3.2-11.3-3.2h-10.5v44h1.7v-18.4H268.2z M243.7,387.6H242v44h1.7
		V387.6z M227.7,418.4c-0.9,2.6-2.2,4.7-3.9,6.5s-3.6,3.1-6,4c-2.3,0.9-4.9,1.4-7.6,1.4h-14.2V389h14.2c2.8,0,5.3,0.5,7.6,1.4
		c2.3,0.9,4.3,2.3,6,4c1.7,1.8,2.9,3.9,3.9,6.5c0.9,2.6,1.4,5.5,1.4,8.8C229.1,412.9,228.6,415.8,227.7,418.4 M229.4,400.4
		c-1-2.7-2.4-5-4.2-6.9s-4-3.3-6.5-4.3c-2.5-1-5.3-1.5-8.4-1.5h-15.9v44h15.9c3,0,5.8-0.5,8.4-1.5c2.5-1,4.7-2.4,6.5-4.3
		c1.8-1.9,3.2-4.2,4.2-6.9c1-2.7,1.5-5.8,1.5-9.3C230.9,406.2,230.4,403.1,229.4,400.4 M148.1,387.6h-0.8v44h1.5v-40.1
		c0-0.2,0-0.3,0-0.5c0-0.2,0-0.4,0-0.6l30.2,40.9c0.2,0.3,0.4,0.4,0.7,0.4h0.7v-44h-1.5v40v0.5c0,0.2,0,0.4,0,0.6L148.9,388
		c-0.1-0.2-0.2-0.3-0.3-0.3C148.4,387.7,148.3,387.6,148.1,387.6 M110.9,387.6v44h26l0.1-1.5h-24.3v-20.1h20.5v-1.4h-20.5v-19.5
		h24.3v-1.5H110.9z M75.2,389h8.9c4.2,0,7.4,0.8,9.6,2.4c2.2,1.6,3.3,4.1,3.3,7.5c0,1.6-0.3,3.1-0.9,4.4c-0.6,1.3-1.5,2.4-2.7,3.4
		c-1.2,0.9-2.6,1.6-4.2,2.1c-1.7,0.5-3.5,0.7-5.6,0.7h-8.4V389z M81.7,410.9c0.4,0,0.8,0,1.1,0.1c0.3,0,0.6,0.1,0.8,0.2
		c0.2,0.1,0.4,0.2,0.6,0.4c0.2,0.1,0.3,0.3,0.5,0.6l15.5,19c0.2,0.2,0.3,0.4,0.5,0.4c0.2,0.1,0.4,0.1,0.6,0.1h1.4l-16.4-19.9
		c-0.4-0.4-0.7-0.7-1.1-0.9c2-0.1,3.9-0.5,5.5-1.1c1.7-0.6,3.1-1.4,4.3-2.5c1.2-1,2.1-2.3,2.7-3.7c0.6-1.4,1-3,1-4.7
		c0-3.8-1.2-6.6-3.7-8.5c-2.5-1.9-6.1-2.8-10.9-2.8H73.5v44h1.7v-20.7H81.7z M37.1,387.6v44h26l0.1-1.5H38.8v-20.1h20.5v-1.4H38.8
		v-19.5h24.3v-1.5H37.1z M25,391.5c-1.5-1.5-3.1-2.6-4.8-3.3c-1.7-0.7-3.7-1.1-5.9-1.1c-2,0-3.7,0.3-5.2,0.9
		c-1.5,0.6-2.8,1.4-3.8,2.4c-1,1-1.8,2.2-2.4,3.5c-0.5,1.3-0.8,2.7-0.8,4.1c0,1.8,0.3,3.4,1,4.6c0.6,1.2,1.5,2.2,2.6,3.1
		c1.1,0.8,2.3,1.5,3.6,2c1.4,0.5,2.7,1,4.2,1.5c1.4,0.4,2.8,0.9,4.2,1.4c1.4,0.5,2.6,1.1,3.6,1.8c1.1,0.7,1.9,1.6,2.6,2.7
		c0.6,1.1,1,2.5,1,4.1c0,1.6-0.3,3-0.8,4.4c-0.5,1.4-1.3,2.6-2.4,3.6c-1,1-2.3,1.8-3.8,2.4c-1.5,0.6-3.2,0.9-5.1,0.9
		c-1.3,0-2.5-0.1-3.6-0.4c-1.1-0.3-2-0.6-2.8-1c-0.8-0.4-1.5-0.8-2.1-1.3c-0.6-0.4-1.1-0.9-1.5-1.3c-0.4-0.4-0.8-0.7-1-1
		c-0.3-0.3-0.5-0.4-0.6-0.4s-0.3,0-0.3,0.1s-0.2,0.1-0.3,0.2L0,426.4c0.8,0.9,1.6,1.7,2.4,2.4c0.8,0.7,1.8,1.3,2.8,1.8
		c1,0.5,2.1,0.9,3.3,1.1c1.2,0.3,2.5,0.4,4,0.4c2.2,0,4.1-0.3,5.8-1c1.7-0.7,3.1-1.6,4.3-2.8c1.2-1.2,2.1-2.6,2.7-4.2
		c0.6-1.6,0.9-3.3,0.9-5.1c0-1.8-0.3-3.3-1-4.5c-0.6-1.2-1.5-2.2-2.6-3c-1.1-0.8-2.3-1.5-3.6-2c-1.3-0.5-2.7-1-4.2-1.5
		s-2.8-1-4.2-1.5c-1.3-0.5-2.6-1.1-3.6-1.8c-1.1-0.7-1.9-1.6-2.6-2.7c-0.6-1.1-1-2.4-1-4c0-1.3,0.2-2.4,0.7-3.6c0.5-1.1,1.1-2.1,2-3
		c0.9-0.9,2-1.6,3.3-2.1c1.3-0.5,2.8-0.8,4.6-0.8c1.7,0,3.1,0.2,4.3,0.6c1.1,0.4,2.1,0.9,2.8,1.4c0.7,0.5,1.3,1,1.7,1.4
		c0.4,0.4,0.7,0.6,1,0.6c0.2,0,0.4-0.1,0.5-0.3L25,391.5z"/>
	<line style="fill:none;stroke:#FFFFFF;" x1="184.8" y1="445.9" x2="184.8" y2="478.5"/>
</g>
</svg>
