<?xml version="1.0" encoding="utf-8"?>
<!-- Generator: Adobe Illustrator 18.0.0, SVG Export Plug-In . SVG Version: 6.00 Build 0)  -->
<!DOCTYPE svg PUBLIC "-//W3C//DTD SVG 1.1//EN" "http://www.w3.org/Graphics/SVG/1.1/DTD/svg11.dtd">
<svg version="1.1" id="Layer_1" xmlns="http://www.w3.org/2000/svg" xmlns:xlink="http://www.w3.org/1999/xlink" x="0px" y="0px"
	 viewBox="0 0 106 84.7" style="enable-background:new 0 0 106 84.7;" xml:space="preserve">
<g>
	<g>
		<g style="opacity:0.7;">
			<g>
				<path style="fill:#FFFFFF;" d="M77.9,45.1c-0.2-1.4-0.3-2.8-0.6-4.2c-0.4-1.9-1.9-2.6-3.5-2.6c-1.8,0-3.4,0.9-3.6,2.8
					c-0.2,2.7-0.2,5.4,0,8.1c0.2,1.9,1.6,2.8,3.6,2.9c1.9,0,3-1,3.5-2.7C77.5,48,77.6,46.6,77.9,45.1 M69.9,55.6
					c-1,1.9-1.8,2.1-6.4,1.5V24.4h5.9v9.8c2.3-0.5,4.5-1.3,6.7-1.3c3.5-0.1,5.9,1.8,6.8,5.2c1.2,4.4,1.3,8.9,0.2,13.2
					c-1.5,5.7-7.2,7.9-12.3,4.8C70.6,56,70.2,55.8,69.9,55.6"/>
				<path style="fill:#FFFFFF;" d="M45.5,57.2h-5.9c0-2.8,0-5.5,0-8.2c0-2.5-0.1-5-0.2-7.4c-0.1-2.1-1.5-3.2-3.5-3.3
					C34.1,38.2,32.5,39,32,41c-0.2,0.9-0.3,1.9-0.3,2.8c0,4.4,0,8.8,0,13.3h-6V33.3c3.9-0.8,5.4-0.5,6.3,1.5c2.4-1.5,5-2.3,7.9-1.6
					c3.4,0.8,5.4,3.2,5.6,6.4C45.8,45.3,45.5,51.2,45.5,57.2"/>
				<path style="fill:#FFFFFF;" d="M0.1,32.9c1.8,0.1,3.6,0.3,5.7,0.4c0,2.8,0,5.5,0,8.1c0,2.4,0.2,4.8,0.3,7.2
					c0.1,2.3,1.5,3.2,3.6,3.4c2.1,0.2,3.7-1.1,3.9-3.3c0.3-3.5,0.2-7,0.3-10.5c0-1.6,0-3.2,0-4.9c2.1-0.2,4-0.3,6-0.5V57
					c-3.6,0.9-5.3,0.5-6.2-1.4c-2.8,1.6-5.7,2.7-9,1.2c-2.5-1.1-4.4-3-4.5-5.7C-0.1,45.2,0.1,39.2,0.1,32.9"/>
				<path style="fill:#FFFFFF;" d="M98.2,38.6h-9.8v-5.5h17.4c0.5,2.5,0,4.7-1.5,6.7c-2.9,3.8-5.8,7.6-8.9,11.8h10.5v5.6H87.6
					c-0.6-2.7,0.2-4.9,1.8-6.9C92.3,46.6,95,42.8,98.2,38.6"/>
				<rect x="63.7" y="0" style="fill:#FFFFFF;" width="42.2" height="5.8"/>
				<path style="fill:#FFFFFF;" d="M106,79.1v5.6H63.8c-0.1-1.8-0.2-3.6-0.3-5.6H106z"/>
				<path style="fill:#FFFFFF;" d="M57.5,57.2h-5.9V32.9c2,0.1,3.8,0.3,5.9,0.4V57.2z"/>
				<path style="fill:#FFFFFF;" d="M57.7,28.9h-6.3c0.1-1.6,0.2-3.1,0.2-4.7h5.9C57.6,25.8,57.7,27.2,57.7,28.9"/>
			</g>
		</g>
	</g>
</g>
</svg>
